<?xml version="1.0" ?><svg height="64" id="svg8" version="1.1" viewBox="0 0 16.933333 16.933334" width="64" xmlns="http://www.w3.org/2000/svg" xmlns:cc="http://creativecommons.org/ns#" xmlns:dc="http://purl.org/dc/elements/1.1/" xmlns:inkscape="http://www.inkscape.org/namespaces/inkscape" xmlns:rdf="http://www.w3.org/1999/02/22-rdf-syntax-ns#" xmlns:sodipodi="http://sodipodi.sourceforge.net/DTD/sodipodi-0.dtd" xmlns:svg="http://www.w3.org/2000/svg"><defs id="defs2"/><g id="layer1"><path d="m 16.514797,14.919569 c 0.425689,-0.2781 0.548602,-0.853245 0.266643,-1.284638 -0.13909,-0.212816 -0.351436,-0.348662 -0.583928,-0.39738 -0.105499,-0.02211 -0.214652,-0.0257 -0.322453,-0.01016 V 8.9015127 C 16.208748,8.3993981 16.404212,7.7938436 16.404212,7.1445672 V 3.175937 c 0,-0.5937863 -0.47534,-1.0593743 -1.056755,-1.0593348 -1.23486,2.356e-4 -2.469722,-6.68e-5 -3.704584,0 V 0.79269193 C 11.642873,0.35751094 11.287943,-6.9250001e-7 10.847594,-6.9250001e-7 H 6.0847054 C 5.6422845,-6.9250001e-7 5.29201,0.35751333 5.29201,0.79269193 V 2.1166022 c -1.235206,-9.04e-5 -2.470412,1.048e-4 -3.7056175,0 C 1.0049773,2.1165627 0.52963761,2.5821507 0.52963761,3.175937 v 3.9686302 c 0,0.6496889 0.1955932,1.252573 0.52966929,1.7548786 v 4.3288032 c -0.10813119,-0.01571 -0.21765259,-0.01288 -0.32348579,0.0093 -0.2324911,0.04872 -0.4448383,0.184564 -0.5839281,0.39738 -0.2819581,0.431393 -0.159046,1.006538 0.2666433,1.284637 L 1.0967712,15.36242 c 0.125638,0.455022 0.5352196,0.776672 1.0208407,0.776672 h 0.00878 c 0.064167,0.446195 0.4462539,0.794242 0.9161987,0.794242 0.2608056,0 0.4945753,-0.107276 0.6619573,-0.278527 0.1673662,0.171115 0.4002371,0.278527 0.6609239,0.278527 0.2608056,0 0.4945753,-0.107276 0.6619573,-0.278527 0.1673821,0.171251 0.4011518,0.278527 0.6619574,0.278527 0.2606871,0 0.4935577,-0.107412 0.6609241,-0.278527 0.1673818,0.171251 0.4011515,0.278527 0.6619571,0.278527 0.4699447,0 0.8522819,-0.348047 0.9164495,-0.794242 h 1.076657 c 0.06417,0.446195 0.446771,0.794242 0.916716,0.794242 0.2607988,0 0.4940578,-0.107282 0.6614388,-0.278527 0.167382,0.171245 0.400642,0.278527 0.661441,0.278527 0.260946,0 0.494041,-0.107632 0.661441,-0.279043 0.167416,0.171548 0.400894,0.279043 0.661958,0.279043 0.2608,0 0.494059,-0.107282 0.661441,-0.278527 0.167381,0.171245 0.400639,0.278527 0.66144,0.278527 0.470318,0 0.853003,-0.348568 0.916715,-0.795276 h 0.0083 c 0.484714,0 0.894261,-0.317278 1.021357,-0.776155 z M 6.0847054,0.52915004 h 4.7628886 c 0.151243,0 0.266127,0.12119396 0.266127,0.26354189 V 2.1166022 c -1.7641868,6.75e-5 -3.5283722,1.195e-4 -5.2925584,0 V 0.79269193 c 0,-0.14078488 0.112285,-0.26354189 0.2635428,-0.26354189 z M 1.5863925,2.6457528 c 4.5870216,8.732e-4 9.1740425,3.969e-4 13.7610645,0 0.295502,-2.01e-5 0.527602,0.2410438 0.527602,0.5301842 v 3.9686302 c 0,1.4570046 -1.179986,2.6442033 -2.644727,2.6442033 h -0.529153 l -10e-4,-0.263542 c -5.4e-5,-0.4351478 -0.351271,-0.7939161 -0.79373,-0.7942426 -0.352768,-0.00101 -0.705536,-3.175e-4 -1.058306,0 -0.442458,3.175e-4 -0.793674,0.3590948 -0.793728,0.7942426 v 0.263542 H 6.6148912 V 9.5252285 C 6.6148372,9.0900807 6.2636209,8.7313124 5.8211626,8.7309859 c -0.3527679,-0.00101 -0.7055368,-3.175e-4 -1.058305,0 C 4.3203994,8.7313034 3.969183,9.0900807 3.9691288,9.5252285 v 0.263542 H 3.7035191 C 2.2387773,9.7887705 1.05879,8.6015718 1.05879,7.1445672 V 3.175937 c 0,-0.2891404 0.2321009,-0.5302043 0.5276025,-0.5301842 z M 4.233705,3.9686295 c -0.352855,0 -0.352855,0.5291505 0,0.5291505 h 6.350346 v 0.7932097 c 0,0.4351788 0.347797,0.7942427 0.793213,0.7942427 0.445416,0 0.794762,-0.3590639 0.794762,-0.7942427 V 4.49778 h 0.52812 c 0.352855,0 0.352855,-0.5291505 0,-0.5291505 z m 0.5291526,5.2915072 h 1.058305 c 0.151152,1.116e-4 0.2645582,0.1183227 0.2645762,0.2650918 V 10.58353 c 1.91e-5,0.151153 -0.1216922,0.264075 -0.2645762,0.264057 H 4.7628576 C 4.6199733,10.847605 4.4982624,10.734683 4.4982814,10.58353 V 9.5252285 c 1.8e-5,-0.1467691 0.1134242,-0.2649802 0.2645762,-0.2650918 z m 6.0852524,0 h 1.058306 c 0.151152,1.116e-4 0.264559,0.1183227 0.264577,0.2650918 V 10.58353 c 1.8e-5,0.151153 -0.121693,0.264075 -0.264577,0.264057 H 10.84811 c -0.142884,1.8e-5 -0.264595,-0.112904 -0.264576,-0.264057 V 9.5252285 c 1.8e-5,-0.1467691 0.113424,-0.2649802 0.264576,-0.2650918 z M 0.91720051,13.747066 c 0.047508,-9.79e-4 0.095592,0.0074 0.14210639,0.02429 v 0.933763 L 0.70739981,14.476198 c -0.1879544,-0.122789 -0.2297966,-0.37351 -0.1152354,-0.548788 0.073977,-0.113188 0.1971296,-0.17773 0.3250361,-0.180344 z m 15.30873249,0.729132 -0.350874,0.228403 v -0.933765 c 0.04618,-0.01658 0.09394,-0.02474 0.141074,-0.02377 0.127907,0.0026 0.251059,0.06716 0.325036,0.180345 0.114561,0.175277 0.07272,0.425998 -0.115236,0.548787 z M 3.0425952,14.815701 c 0.217205,0 0.3968644,0.172424 0.3968644,0.396863 v 0.79476 c 0,0.22444 -0.1826561,0.396346 -0.3968644,0.396346 -0.2142082,0 -0.3963477,-0.171906 -0.3963477,-0.396346 v -0.79476 c 0,-0.224439 0.1791428,-0.396863 0.3963477,-0.396863 z m 1.3228813,0 c 0.2172049,0 0.3968644,0.172424 0.3968644,0.396863 v 0.79476 c 0,0.22444 -0.1826562,0.396346 -0.3968644,0.396346 -0.2142083,0 -0.3963477,-0.171906 -0.3963477,-0.396346 v -0.79476 c 0,-0.224439 0.1791427,-0.396863 0.3963477,-0.396863 z m 1.3239146,0 c 0.217205,0 0.3963477,0.172424 0.3963477,0.396863 v 0.79476 c 0,0.22444 -0.1821391,0.396346 -0.3963477,0.396346 -0.2142082,0 -0.3968644,-0.171906 -0.3968644,-0.396346 v -0.79476 c 0,-0.224439 0.1796595,-0.396863 0.3968644,-0.396863 z m 1.3228813,0 c 0.2172049,0 0.3963477,0.172424 0.3963477,0.396863 v 0.79476 c 0,0.22444 -0.1821395,0.396346 -0.3963477,0.396346 -0.2142083,0 -0.3968645,-0.171906 -0.3968645,-0.396346 v -0.79476 c 0,-0.224439 0.1796595,-0.396863 0.3968645,-0.396863 z m 2.9098218,0 c 0.2172048,0 0.3963488,0.172424 0.3963488,0.396863 v 0.79476 c 0,0.22444 -0.182141,0.396346 -0.3963488,0.396346 -0.214208,0 -0.396348,-0.171906 -0.396348,-0.396346 v -0.79476 c 0,-0.224439 0.179143,-0.396863 0.396348,-0.396863 z m 1.3228808,0 c 0.217204,0 0.396349,0.172424 0.396349,0.396863 v 0.79476 c 0,0.22444 -0.18214,0.396346 -0.396349,0.396346 -0.214208,0 -0.396348,-0.171906 -0.396348,-0.396346 v -0.79476 c 0,-0.224439 0.179143,-0.396863 0.396348,-0.396863 z m 1.323399,0 c 0.217206,0 0.396347,0.172424 0.396347,0.396863 v 0.79476 c 0,0.22444 -0.182138,0.396346 -0.396347,0.396346 -0.214208,0 -0.396348,-0.171906 -0.396348,-0.396346 v -0.79476 c 0,-0.224439 0.179143,-0.396863 0.396348,-0.396863 z m 1.322881,0 c 0.217205,0 0.396347,0.172424 0.396347,0.396863 v 0.79476 c 0,0.22444 -0.182139,0.396346 -0.396347,0.396346 -0.214208,0 -0.396348,-0.171906 -0.396348,-0.396346 v -0.79476 c 0,-0.224439 0.179143,-0.396863 0.396348,-0.396863 z" id="rect1617" style="color:#000000;font-style:normal;font-variant:normal;font-weight:normal;font-stretch:normal;font-size:medium;line-height:normal;font-family:sans-serif;font-variant-ligatures:normal;font-variant-position:normal;font-variant-caps:normal;font-variant-numeric:normal;font-variant-alternates:normal;font-feature-settings:normal;text-indent:0;text-align:start;text-decoration:none;text-decoration-line:none;text-decoration-style:solid;text-decoration-color:#000000;letter-spacing:normal;word-spacing:normal;text-transform:none;writing-mode:lr-tb;direction:ltr;text-orientation:mixed;dominant-baseline:auto;baseline-shift:baseline;text-anchor:start;white-space:normal;shape-padding:0;clip-rule:nonzero;display:inline;overflow:visible;visibility:visible;opacity:1;isolation:auto;mix-blend-mode:normal;color-interpolation:sRGB;color-interpolation-filters:linearRGB;solid-color:#000000;solid-opacity:1;vector-effect:none;fill:#000000;fill-opacity:1;fill-rule:nonzero;stroke:none;stroke-width:0.52916598;stroke-linecap:round;stroke-linejoin:round;stroke-miterlimit:4;stroke-dasharray:none;stroke-dashoffset:0;stroke-opacity:1;color-rendering:auto;image-rendering:auto;shape-rendering:auto;text-rendering:auto;enable-background:accumulate"/></g></svg>